# xmcd
#
# Track frame offsets:
#	150
#	22866
#	46126
#	69165
#	88065
#	115596
#	143118
#	173614
#	197229
#	232714
#	258037
#	282111
#	307195
#
# Disc length: 4493 seconds
#
# Revision: 0
# Processed by: cddbd v1.5.2PL0 Copyright (c) Steve Scherf et al.
# Submitted via: audiograbber 1.83.01
#
DISCID=9d118b0d
DTITLE=Awek - The Early Yeards CD 2
DYEAR=1900
DGENRE=
TTITLE0=Don´t Do It
TTITLE1=He´s Far
TTITLE2=Listen Pretty Babe
TTITLE3=My Lil Sister
TTITLE4=Early In The Morning
TTITLE5=The Gilrl I´ve Found
TTITLE6=Voodoo Man
TTITLE7=Boogie Please My Mind
TTITLE8=I Move Along
TTITLE9=I Can´t Help Myself
TTITLE10=Living In Peace
TTITLE11=Talking About Love
TTITLE12=Pur A Coin In The Juke Box
EXTD=
EXTT0=
EXTT1=
EXTT2=
EXTT3=
EXTT4=
EXTT5=
EXTT6=
EXTT7=
EXTT8=
EXTT9=
EXTT10=
EXTT11=
EXTT12=
PLAYORDER=
